<?xml version="1.0" standalone="no"?>
<!DOCTYPE svg PUBLIC "-//W3C//DTD SVG 20010904//EN"
 "http://www.w3.org/TR/2001/REC-SVG-20010904/DTD/svg10.dtd">
<svg version="1.0" xmlns="http://www.w3.org/2000/svg"
 width="500.000000pt" height="500.000000pt" viewBox="0 0 500.000000 500.000000"
 preserveAspectRatio="xMidYMid meet">
<metadata>
Created by potrace 1.14, written by Peter Selinger 2001-2017
</metadata>
<g transform="translate(0.000000,500.000000) scale(0.100000,-0.100000)"
fill="#000000" stroke="none">
<path d="M323 4452 c-16 -2 -23 -11 -24 -25 -4 -91 -1 -356 5 -374 4 -11 17
-24 29 -27 48 -13 130 -110 174 -206 28 -60 41 -93 43 -105 1 -3 8 -22 17 -42
8 -21 24 -69 35 -108 11 -38 30 -90 44 -114 13 -24 24 -51 24 -60 0 -9 4 -21
9 -26 8 -10 33 -71 72 -183 10 -29 22 -58 26 -65 4 -6 9 -20 10 -30 2 -10 9
-28 15 -40 7 -12 13 -24 13 -27 8 -32 21 -68 31 -89 8 -14 14 -32 14 -39 0 -7
10 -32 21 -55 12 -23 21 -44 21 -47 -2 -10 11 -55 18 -60 6 -5 28 -62 56 -152
9 -27 20 -48 25 -48 5 0 9 -8 9 -18 0 -16 19 -71 90 -262 46 -122 54 -140 63
-140 5 0 6 -4 2 -9 -5 -9 24 -95 58 -171 12 -28 11 -25 22 -64 4 -16 14 -41
21 -55 8 -14 14 -31 14 -37 0 -6 11 -37 25 -68 14 -31 25 -59 25 -64 0 -8 64
-179 85 -227 13 -30 27 -66 30 -75 6 -27 40 -118 51 -139 8 -14 14 -31 14 -37
0 -6 7 -29 17 -50 34 -81 28 -128 -21 -148 -28 -12 -34 -21 -41 -57 -10 -54
-13 -289 -4 -295 4 -2 6 -19 5 -38 l-1 -35 140 -1 c77 -1 147 -1 155 -1 137 3
374 0 383 -6 16 -10 794 -11 831 -1 16 4 152 8 302 8 l274 1 0 200 0 199 -32
20 c-18 10 -39 24 -46 30 -19 17 -7 77 38 190 34 85 45 115 46 125 0 6 8 28
18 50 10 22 19 45 20 50 2 6 9 24 15 40 18 43 82 218 84 230 1 6 6 13 10 16 5
3 12 21 17 40 5 19 20 66 35 104 15 39 42 111 60 160 18 50 43 115 55 145 53
137 72 187 82 220 5 19 14 40 19 46 6 7 9 16 7 20 -1 5 8 31 20 58 12 27 22
54 22 60 0 7 5 17 12 24 7 7 8 12 4 12 -5 0 -1 11 8 25 9 13 17 36 18 50 1 14
6 25 10 25 4 0 8 9 8 19 0 11 4 22 9 25 8 5 25 64 22 79 0 4 3 7 8 7 8 0 18
29 26 70 0 3 6 14 11 25 13 23 28 76 26 88 -1 4 2 7 7 7 5 0 13 15 16 33 4 17
11 37 16 43 5 6 10 19 12 30 4 19 18 55 42 109 7 16 16 45 20 63 4 17 11 32
16 32 6 0 8 4 4 9 -3 5 -1 12 5 16 5 3 10 15 10 26 0 11 9 37 20 59 11 22 22
47 23 57 2 10 9 31 15 46 7 16 12 30 12 32 0 2 5 16 12 32 6 15 12 30 12 33 4
16 41 107 47 115 3 6 10 25 14 43 3 17 10 32 15 32 4 0 11 12 14 26 4 15 18
41 31 59 14 17 24 34 22 36 -1 2 10 16 25 31 15 15 28 24 28 21 0 -3 8 3 18
15 10 12 30 26 45 31 l26 10 1 205 1 206 -143 0 c-291 1 -1744 1 -1760 1 -17
-1 -18 -18 -18 -205 l0 -204 33 -12 c50 -17 87 -54 90 -92 3 -29 -25 -131 -52
-193 -19 -44 -53 -135 -55 -147 -1 -7 -18 -42 -37 -78 -43 -79 -56 -112 -64
-165 -6 -47 -13 -73 -25 -100 -18 -41 -101 -261 -105 -280 -3 -11 -11 -33 -19
-50 -8 -16 -22 -52 -32 -80 -16 -47 -18 -48 -27 -25 -5 14 -13 34 -18 45 -25
62 -60 158 -78 217 -11 37 -49 141 -85 230 -35 90 -71 185 -80 211 -9 27 -23
62 -31 78 -9 16 -13 29 -9 29 4 0 1 7 -6 15 -7 8 -10 15 -6 15 4 0 -3 18 -14
40 -11 21 -20 43 -20 48 0 5 -8 27 -17 48 -9 22 -22 63 -28 92 -11 49 -10 57
9 85 19 28 34 39 96 67 12 6 15 41 18 209 1 110 -1 201 -5 202 -35 2 -1883 3
-1900 1z m3780 -1447 c-3 -9 -8 -14 -10 -11 -3 3 -2 9 2 15 9 16 15 13 8 -4z
m-252 -662 c-12 -20 -14 -14 -5 12 4 9 9 14 11 11 3 -2 0 -13 -6 -23z m-138
-375 c-6 -7 -16 -34 -24 -60 -7 -27 -16 -48 -20 -48 -7 0 -23 -56 -22 -77 0
-7 -3 -13 -8 -13 -5 0 -9 -8 -9 -17 0 -9 -3 -14 -6 -10 -3 3 -1 21 5 39 5 18
12 47 14 63 7 52 61 154 75 140 3 -2 0 -10 -5 -17z m-142 -372 c-14 -36 -22
-33 -9 5 6 16 12 28 14 26 3 -2 0 -16 -5 -31z m-187 -541 c-4 -8 -11 -15 -16
-15 -6 0 -5 6 2 15 7 8 14 15 16 15 2 0 1 -7 -2 -15z"/>
<path d="M3651 682 c-41 -40 -45 -76 -11 -112 40 -42 88 -42 125 2 19 23 25
38 20 56 -9 36 -35 72 -54 73 -9 0 -24 2 -34 4 -10 2 -31 -9 -46 -23z m95 -19
c39 -46 11 -112 -47 -111 -60 2 -85 83 -37 120 33 25 57 22 84 -9z"/>
<path d="M3670 620 c0 -30 4 -49 10 -45 5 3 7 12 3 20 -8 23 13 18 31 -7 l17
-23 -7 23 c-3 13 -1 29 5 35 14 18 -1 37 -32 43 -26 4 -27 3 -27 -46z m50 20
c0 -5 -9 -10 -20 -10 -11 0 -20 5 -20 10 0 6 9 10 20 10 11 0 20 -4 20 -10z"/>
</g>
</svg>
